<svg width="41" height="41" viewBox="0 0 41 41" fill="none" xmlns="http://www.w3.org/2000/svg">
<g clip-path="url(#clip0)">
<circle cx="21.7115" cy="24.8451" r="12.1252" fill="#EB7B26"/>
<path d="M8.28 7.47953V22.5995C8.28 24.1115 8.652 25.2755 9.396 26.0915C10.14 26.9075 11.232 27.3155 12.672 27.3155C14.112 27.3155 15.216 26.9075 15.984 26.0915C16.752 25.2755 17.136 24.1115 17.136 22.5995V7.47953H23.292V22.5635C23.292 24.8195 22.812 26.7275 21.852 28.2875C20.892 29.8475 19.596 31.0235 17.964 31.8155C16.356 32.6075 14.556 33.0035 12.564 33.0035C10.572 33.0035 8.784 32.6195 7.2 31.8515C5.64 31.0595 4.404 29.8835 3.492 28.3235C2.58 26.7395 2.124 24.8195 2.124 22.5635V7.47953H8.28Z" fill="#3A3A3A"/>
<path d="M41.2158 10.864C41.2158 12.328 40.8798 13.672 40.2078 14.896C39.5358 16.096 38.5038 17.068 37.1118 17.812C35.7198 18.556 33.9918 18.928 31.9278 18.928H28.1118V28H21.9558V2.728H31.9278C33.9438 2.728 35.6478 3.076 37.0398 3.772C38.4318 4.468 39.4758 5.428 40.1718 6.652C40.8678 7.876 41.2158 9.28 41.2158 10.864ZM31.4598 14.032C32.6358 14.032 33.5118 13.756 34.0878 13.204C34.6638 12.652 34.9518 11.872 34.9518 10.864C34.9518 9.856 34.6638 9.076 34.0878 8.524C33.5118 7.972 32.6358 7.696 31.4598 7.696H28.1118V14.032H31.4598Z" fill="#7B50A8"/>
</g>
<defs>
<clipPath id="clip0">
<rect width="41" height="41" fill="white"/>
</clipPath>
</defs>
</svg>
